<?xml version="1.0" encoding="utf-8"?>
<!-- Generator: Adobe Illustrator 19.0.0, SVG Export Plug-In . SVG Version: 6.00 Build 0)  -->
<svg version="1.1" id="Layer_1" xmlns="http://www.w3.org/2000/svg" xmlns:xlink="http://www.w3.org/1999/xlink" x="0px" y="0px"
	 viewBox="-71 215.8 467.1 362.2" style="enable-background:new -71 215.8 467.1 362.2;" xml:space="preserve">
<style type="text/css">
	.st0{fill:#FAFAFA;}
	.st1{fill:#6D65FE;}
</style>
<g id="XMLID_52_">
	<path id="XMLID_57_" class="st0" d="M36.7,228.5c51.1-9,101.7-11.5,147.7,19.3c26.1,17.4,40.9,43.6,41.4,74.1
		c1.5,81.3,0.5,162.7,0.5,243.8c-50.5,8.5-90.3-27-91-81.4c-0.6-46.7,1-93.5,1.1-140.2C136.7,273.3,107.3,239.9,36.7,228.5z"/>
	<path id="XMLID_56_" class="st0" d="M66.3,373.4c0,65,0,126.1,0,187.2c-54.3,22.8-117.1-3-129.9-53.2c-9.8-38.5,10.5-82.7,50.7-103
		C11.7,392,38.5,384.1,66.3,373.4z"/>
	<path id="XMLID_55_" class="st1" d="M48.5,305.6c-1.7,28-26,49.9-53.5,48.4c-27.4-1.5-50.3-26.9-48.5-53.7
		c1.9-27.5,27-50.2,53.8-48.7C27.5,253.3,50.2,278.7,48.5,305.6z"/>
	<path id="XMLID_54_" class="st0" d="M266.1,222.1c41.1,0,80.3,0,122.3,0c0,44.4,0,86.1,0,128.1
		C366.7,290.8,328.8,245.2,266.1,222.1z"/>
	<path id="XMLID_53_" class="st0" d="M323,323.2c0,45,0,84.2,0,127.8c-17.6-32.2-39.6-54.1-73.6-62.7
		C282.1,377.9,306,358.7,323,323.2z"/>
</g>
</svg>
