<?xml version="1.0" encoding="utf-8"?>
<!-- Generator: Adobe Illustrator 19.0.0, SVG Export Plug-In . SVG Version: 6.00 Build 0)  -->
<svg version="1.1" id="Layer_1" xmlns="http://www.w3.org/2000/svg" xmlns:xlink="http://www.w3.org/1999/xlink" x="0px" y="0px"
	 viewBox="0 0 467.1 362.2" style="enable-background:new 0 0 467.1 362.2;" xml:space="preserve">
<style type="text/css">
	.st0{fill:#090909;}
	.st1{fill:#12B9A6;}
</style>
<g id="XMLID_52_">
	<path id="XMLID_57_" class="st0" d="M107.7,12.7c51.1-9,101.7-11.5,147.7,19.3c26.1,17.4,40.9,43.6,41.4,74.1
		c1.5,81.3,0.5,162.7,0.5,243.8c-50.5,8.5-90.3-27-91-81.4c-0.6-46.7,1-93.5,1.1-140.2C207.7,57.5,178.3,24.1,107.7,12.7z"/>
	<path id="XMLID_56_" class="st0" d="M137.3,157.6c0,65,0,126.1,0,187.2c-54.3,22.8-117.1-3-129.9-53.2
		c-9.8-38.5,10.5-82.7,50.7-103C82.7,176.2,109.5,168.3,137.3,157.6z"/>
	<path id="XMLID_55_" class="st1" d="M119.5,89.8c-1.7,28-26,49.9-53.5,48.4c-27.4-1.5-50.3-26.9-48.5-53.7
		c1.9-27.5,27-50.2,53.8-48.7C98.5,37.5,121.2,62.9,119.5,89.8z"/>
	<path id="XMLID_54_" class="st0" d="M337.1,6.3c41.1,0,80.3,0,122.3,0c0,44.4,0,86.1,0,128.1C437.7,75,399.8,29.4,337.1,6.3z"/>
	<path id="XMLID_53_" class="st0" d="M394,107.4c0,45,0,84.2,0,127.8c-17.6-32.2-39.6-54.1-73.6-62.7
		C353.1,162.1,377,142.9,394,107.4z"/>
</g>
</svg>
